<?xml version="1.0" standalone="no"?><!DOCTYPE svg PUBLIC "-//W3C//DTD SVG 20010904//EN"
    "http://www.w3.org/TR/2001/REC-SVG-20010904/DTD/svg10.dtd">
<svg height="512.000000pt" preserveAspectRatio="xMidYMid meet" version="1.0" viewBox="0 0 512.000000 512.000000"
    width="512.000000pt" xmlns="http://www.w3.org/2000/svg">

    <g fill="#000000" stroke="none"
        transform="translate(0.000000,512.000000) scale(0.100000,-0.100000)">
        <path d="M2524 5111 c-12 -5 -31 -22 -43 -38 -21 -25 -22 -37 -19 -135 3 -102
4 -109 31 -135 38 -38 96 -38 135 0 26 27 27 30 27 142 0 109 -1 116 -25 140
-28 28 -74 39 -106 26z" />
        <path d="M1976 4915 c-41 -22 -55 -44 -56 -88 0 -35 8 -47 68 -109 99 -104
154 -119 207 -56 45 54 31 100 -62 190 -50 49 -95 78 -121 78 -4 0 -20 -7 -36
-15z" />
        <path d="M2978 4841 c-68 -70 -78 -84 -78 -116 0 -47 24 -81 66 -95 50 -17 79
-2 163 85 62 63 71 78 71 110 0 54 -44 95 -101 95 -41 0 -48 -5 -121 -79z" />
        <path d="M2445 4566 c-150 -29 -310 -145 -389 -280 l-39 -66 -25 16 c-93 61
-166 84 -267 84 -151 0 -287 -76 -372 -208 -55 -85 -64 -129 -70 -317 -8 -257
16 -343 129 -461 32 -33 58 -67 58 -75 0 -10 -35 -22 -111 -41 -132 -32 -201
-63 -267 -123 -111 -100 -151 -202 -159 -405 -4 -117 -2 -140 14 -170 30 -57
43 -60 306 -60 l237 0 0 -200 c0 -231 7 -261 64 -285 28 -12 94 -15 329 -15
162 0 308 3 326 6 80 16 109 108 52 165 -27 27 -35 29 -99 29 l-70 0 -4 126
-3 126 -34 30 c-28 25 -39 29 -70 24 -23 -3 -46 -17 -63 -36 -27 -30 -28 -33
-28 -150 l0 -120 -100 0 -100 0 0 138 c0 76 5 164 11 196 24 132 107 243 221
296 58 27 354 108 363 99 2 -2 45 -98 95 -214 54 -124 102 -219 116 -232 17
-16 38 -23 64 -23 26 0 47 7 64 23 15 13 61 104 116 232 51 116 93 211 95 213
8 9 310 -73 364 -98 112 -53 196 -166 220 -296 6 -32 11 -120 11 -196 l0 -138
-99 0 -99 0 -4 126 -3 126 -34 30 c-28 25 -39 29 -70 24 -23 -3 -46 -17 -63
-36 -27 -30 -28 -33 -28 -150 l0 -120 -76 0 c-70 0 -78 -2 -105 -29 -57 -57
-28 -149 52 -165 18 -3 166 -6 331 -6 338 0 358 3 383 64 12 27 15 82 15 235
l0 200 250 3 250 3 27 28 c26 26 28 33 31 135 8 220 -36 351 -150 458 -76 69
-136 98 -279 133 -75 18 -109 30 -109 40 0 8 26 42 59 75 107 112 131 188 131
417 0 184 -9 242 -51 325 -75 149 -229 244 -396 244 -73 0 -172 -25 -220 -56
-13 -8 -34 -21 -47 -30 -24 -15 -25 -15 -47 28 -117 230 -378 355 -634 304z
m213 -200 c131 -35 243 -149 276 -280 l7 -28 -43 24 c-142 83 -159 90 -189 84
-17 -3 -58 -30 -92 -61 -103 -93 -189 -124 -346 -125 l-94 0 6 59 c20 226 253
386 475 327z m-802 -282 c44 -27 94 -83 94 -105 0 -5 -17 -16 -37 -25 -82 -36
-180 -55 -306 -61 l-128 -6 7 29 c22 91 61 143 139 181 72 34 163 29 231 -13z
m1615 26 c72 -20 146 -105 164 -187 l7 -33 -80 0 c-45 0 -115 5 -158 11 -82
11 -225 58 -231 75 -2 6 10 29 26 51 55 77 169 111 272 83z m-629 -227 l98
-57 0 -111 c0 -160 -29 -236 -123 -322 -59 -54 -109 -79 -191 -94 -168 -31
-340 60 -414 219 -22 47 -27 75 -30 160 l-4 102 98 0 c55 0 130 7 169 15 78
17 190 68 250 114 22 17 42 31 44 31 2 0 48 -26 103 -57z m-862 -177 c0 -140
-45 -229 -139 -278 -135 -71 -303 -1 -346 144 -8 28 -15 66 -15 83 l0 32 138
6 c129 6 279 33 321 57 33 20 41 12 41 -44z m1217 39 c76 -29 171 -46 307 -52
l138 -6 -5 -57 c-22 -249 -351 -318 -462 -97 -21 43 -25 65 -25 139 0 48 2 88
5 88 2 0 22 -7 42 -15z m-1044 -481 c48 -47 79 -83 69 -79 -9 4 -66 19 -126
33 -59 15 -111 32 -113 39 -4 10 66 87 83 93 1 0 40 -39 87 -86z m946 47 c26
-24 42 -45 38 -53 -3 -8 -40 -22 -88 -33 -46 -10 -102 -25 -123 -32 -22 -7
-41 -12 -42 -10 -2 2 18 19 44 38 26 20 63 57 82 82 19 26 37 46 40 46 3 0 25
-17 49 -38z m-1314 -151 c9 -56 48 -85 140 -105 41 -9 75 -18 75 -20 0 -2 -26
-11 -57 -20 -151 -44 -303 -164 -371 -292 l-33 -63 -206 0 -206 0 6 75 c10
117 47 186 125 236 30 19 94 40 200 65 179 44 212 63 212 128 l0 36 54 0 54 0
7 -40z m1665 4 c0 -64 34 -85 195 -123 77 -18 158 -41 180 -50 100 -44 152
-124 162 -251 l6 -80 -206 0 -206 0 -33 63 c-68 128 -220 248 -370 292 -32 9
-58 18 -58 20 0 2 34 11 75 20 92 20 132 50 141 106 l7 39 53 0 54 0 0 -36z
m-770 -99 c0 -17 -27 -91 -59 -164 l-59 -134 -15 29 c-44 86 -107 246 -107
270 l0 29 120 0 120 0 0 -30z" />
        <path d="M290 3550 c-119 -14 -234 -111 -270 -227 -19 -63 -20 -92 -20 -888 0
-529 4 -852 11 -902 13 -97 59 -238 106 -323 40 -74 231 -346 263 -375 61 -55
177 17 156 98 -3 12 -53 90 -110 172 -58 83 -124 186 -145 230 -78 156 -75
107 -78 1062 -3 748 -2 856 11 882 46 89 171 98 230 18 21 -28 21 -38 26 -730
6 -771 4 -746 69 -877 48 -96 82 -139 268 -337 338 -361 361 -383 404 -383 26
0 47 8 68 26 26 22 31 33 31 70 0 43 -2 46 -217 275 -336 357 -325 343 -325
420 0 92 60 153 152 154 54 0 58 -2 240 -124 244 -164 320 -223 410 -317 125
-131 221 -292 283 -474 14 -41 66 -268 116 -505 94 -445 102 -471 153 -489 59
-21 128 27 128 89 0 36 -141 722 -179 871 -48 186 -140 379 -258 534 -54 72
-192 207 -273 269 -109 84 -437 301 -487 323 -102 45 -232 31 -332 -36 l-50
-34 -3 641 c-3 634 -3 643 -25 689 -62 136 -205 215 -353 198z" />
        <path d="M4645 3521 c-69 -32 -137 -100 -168 -169 -22 -46 -22 -55 -25 -689
l-3 -641 -50 34 c-100 67 -230 81 -332 36 -50 -22 -378 -239 -487 -323 -81
-62 -219 -197 -273 -269 -118 -155 -210 -348 -258 -534 -38 -149 -179 -835
-179 -871 0 -62 69 -110 128 -89 51 18 59 44 153 489 50 237 102 464 116 505
62 182 158 343 283 474 90 94 166 153 410 317 182 122 186 124 240 124 92 -1
152 -62 152 -154 0 -77 11 -63 -324 -420 -216 -229 -218 -232 -218 -275 0 -37
5 -48 31 -70 21 -18 42 -26 68 -26 43 0 66 22 404 383 186 198 220 241 268
337 65 131 63 106 69 877 5 692 5 702 26 730 59 80 184 71 229 -17 13 -25 15
-143 15 -843 0 -891 -2 -921 -58 -1057 -39 -90 -70 -137 -478 -711 -197 -277
-364 -521 -371 -542 -11 -32 -11 -42 2 -67 30 -58 85 -75 138 -42 31 19 804
1103 854 1198 44 83 90 224 102 317 7 50 11 373 11 902 0 796 -1 825 -20 888
-27 86 -89 156 -175 197 -53 25 -75 30 -141 30 -66 0 -89 -5 -139 -29z" />
        <path d="M2497 2136 c-90 -84 22 -223 120 -150 75 56 36 174 -57 174 -25 0
-45 -8 -63 -24z" />
        <path d="M595 677 c-17 -14 -28 -36 -32 -63 -4 -35 -1 -46 24 -74 22 -24 37
-32 66 -33 66 -2 118 59 103 119 -18 70 -107 98 -161 51z" />
        <path d="M798 380 c-50 -50 -39 -90 65 -235 83 -118 113 -145 160 -145 30 0
64 25 82 60 13 25 13 35 2 67 -16 46 -148 234 -184 263 -39 30 -88 26 -125
-10z" />
    </g>
</svg>
