<svg fill="none" height="149" viewBox="0 0 163 149" width="163" xmlns="http://www.w3.org/2000/svg">
    <path clip-rule="evenodd"
        d="M78.1842 140H0V11.6667H17.5C24.6808 11.6667 30.2225 5.34333 35 0H81.6667C86.4558 5.34333 92.0033 11.6667 99.1667 11.6667H116.667V65.0417C113.838 64.47 110.909 64.1667 107.917 64.1667L105 64.26V23.3333H81.6667L70 35H47.2675L35 23.3333H11.6667V128.333H69.2183C71.5342 132.714 74.5792 136.657 78.1842 140ZM34.1192 87.1967L28 81.4567L23.3333 86.2575L34.2067 96.6175L52.5 77.9975L47.7458 73.2842L34.1192 87.1967ZM70 93.3333H58.3333V87.5H70V93.3333ZM81.6667 81.6667H58.3333V75.8333H81.6667V81.6667ZM34.1192 58.1875L28 52.4533L23.3333 57.2542L34.2067 67.6142L52.5 48.9942L47.7458 44.2808L34.1192 58.1875ZM81.6667 64.1667H58.3333V58.3333H81.6667V64.1667ZM81.6667 52.5H58.3333V46.6667H81.6667V52.5ZM52.5 17.5C52.5 20.72 55.1192 23.3333 58.3333 23.3333C61.5592 23.3333 64.1667 20.72 64.1667 17.5C64.1667 14.28 61.5592 11.6667 58.3333 11.6667C55.1192 11.6667 52.5 14.28 52.5 17.5Z"
        fill="black" fill-rule="evenodd" />
    <path clip-rule="evenodd"
        d="M96.5 103.5V107H124.5V82.5H89.5V79C89.5 77.068 91.068 75.5 93 75.5H128C129.932 75.5 131.5 77.068 131.5 79V86H147.834C151.744 86 153.435 88.016 154.611 89.8745C156.69 93.1645 159.986 98.3865 161.992 101.697C162.65 102.789 163 104.043 163 105.32V121C163 124.811 160.399 128 156 128H152.5C152.5 133.796 147.796 138.5 142 138.5C136.204 138.5 131.5 133.796 131.5 128H117.5C117.5 133.796 112.796 138.5 107 138.5C101.204 138.5 96.5 133.796 96.5 128H93C91.068 128 89.5 126.432 89.5 124.5V103.5H82.5V96.5H107V103.5H96.5V103.5ZM107 123.8C109.317 123.8 111.2 125.683 111.2 128C111.2 130.317 109.317 132.2 107 132.2C104.683 132.2 102.8 130.317 102.8 128C102.8 125.683 104.683 123.8 107 123.8V123.8ZM142 123.8C144.317 123.8 146.2 125.683 146.2 128C146.2 130.317 144.317 132.2 142 132.2C139.683 132.2 137.8 130.317 137.8 128C137.8 125.683 139.683 123.8 142 123.8ZM131.5 114H96.5V121H99.1775C101.099 118.851 103.892 117.5 107 117.5C110.108 117.5 112.901 118.851 114.822 121H134.178C136.099 118.851 138.892 117.5 142 117.5C145.108 117.5 147.901 118.851 149.823 121H156V104.988L150.011 94.736C149.385 93.6615 148.234 93 146.991 93H131.5V114V114ZM135 96.5V107H152.5L147.505 98.264C146.882 97.172 145.724 96.5 144.467 96.5H135ZM79 86H107V93H79V86Z"
        fill="black" fill-rule="evenodd" />
</svg>