<?xml version="1.0" encoding="utf-8"?><!-- Generator: Adobe Illustrator 26.3.0, SVG Export Plug-In . SVG Version: 6.00 Build 0)  -->
<svg style="enable-background:new 0 0 384 368.2;" id="Layer_1" version="1.1" viewBox="0 0 384 368.2" x="0px"
    xmlns="http://www.w3.org/2000/svg" y="0px" xml:space="preserve">
<g>
	<path d="M384,80.6c-3.5,9.7-10.6,13.7-20.6,12.8c-2.4-0.2-4.7-0.1-7.1,0c-7.2,0.3-12.9-2.2-16.6-8.7c-1.3-2.3-8.2-2.4-10-0.3
		c-0.7,0.9-1.3,1.8-2,2.7c-9.6,14-23.1,21.2-39.7,23.4c-2.6,0.3-5.2,0.7-8.1,1.1c0,1.5,0,2.8,0,4.1c0,14,0,28,0,42
		c0,6.1-1.9,8-8.1,8c-56.2,0-112.5,0-168.7,0c-6,0-7.9-1.9-7.9-7.8c0-30.2,0-60.5,0-90.7c0-5.9,1.9-7.8,7.9-7.8
		c16.4,0,32.7-0.1,49.1,0c2.6,0,4.4-0.7,6.2-2.6c9.4-10.2,19-20.2,28.3-30.5c10.2-11.2,22.7-16.5,37.9-16.4
		c36.9,0.2,73.7,0,110.6,0.1c2.4,0,4-0.4,5.5-2.7c2.7-4.5,7.1-6.9,12.5-7.1c3.6-0.1,7.3,0.1,10.9-0.1c10.1-0.8,16.8,3.4,20.1,13
		C384,35.6,384,58.1,384,80.6z M172.9,58.5c0.2,0.3,0.4,0.6,0.5,0.9c0.8,0,1.7,0,2.5,0c18,0,36,0,54,0c3.2,0,6.4-0.1,8,3.4
		c1.6,3.4-0.2,6.1-2.3,8.5c-5.2,5.9-10.6,11.7-15.7,17.7c-3.4,4-6.7,8.1-9.4,12.6c-2.3,3.8-0.7,6,3.6,6.7c7.5,1.1,13.5-1.8,18.5-7.1
		c11.5-12.3,23.1-24.6,34.3-37.2c3.3-3.8,6.6-5.1,11.4-3.8c12.5,3.4,23.5,1.1,32.4-8.9c0.2-0.2,0.4-0.4,0.5-0.5
		c2.7-2.2,5.8-2.2,8.1,0c2.4,2.3,2.7,5.7,0.2,8.4c-5.7,6.2-12.2,11.4-20.6,13c-6.2,1.2-12.6,1.1-19.1,1.5c0,8.1,0,16.7,0,25.6
		c14.3-1.1,27.1-4.8,36-16.7c1.9-2.5,3.7-5,5.3-7.7c1.7-2.7,4-3.9,7.2-3.9c2.9,0.1,5.9,0,8.8,0c0-16.7,0-32.7,0-48.8
		c-0.6-0.1-1-0.3-1.3-0.3c-38.6,0-77.2,0-115.9,0.1c-7.3,0-14.3,2.5-19.5,7.6C191.2,39.1,182.1,48.9,172.9,58.5z M267.5,123.4
		c0-13.9,0-27.4,0-41.5c-2,2.2-3.4,3.8-5,5.4c-7.5,7.9-14.9,15.8-22.6,23.5c-6,6-13.3,9.7-22.1,9.4c-3-0.1-4.5,0.6-5.8,3.6
		c-5.1,11.7-17.6,17.8-30.2,15.3c-11.7-2.4-20.9-13-21.4-24.8c-0.6-13.3,7.3-24.4,19.8-27.9c8.2-2.3,15.8-0.7,22.8,3.8
		c5.4-6.2,10.7-12.2,16.3-18.6c-27.8,0-54.9,0-82.1,0c-3.8,16.3-13.9,26.2-29.9,30c0,7.6,0,14.9,0,22.1
		c14.9,3.5,24.7,12.2,28.9,26.7c0.9,3,2.1,3.5,4.8,3.5c30.4-0.1,60.7-0.1,91.1-0.1c1.2,0,2.5,0,3.7,0
		C240.1,136.8,250.6,126.7,267.5,123.4z M372,47.3c0-9.9,0-19.7,0-29.6c0-4.1-1.3-5.5-5.3-5.5c-4-0.1-8,0-12,0c-3.4,0-5,1.8-5.1,5.1
		c0,19.7,0,39.4,0,59.2c0,3.3,1.7,5.1,5.1,5c3.7,0,7.5,0,11.2,0c4.7,0,5.9-1.3,5.9-6C372,66,372,56.6,372,47.3z M172.4,110.9
		c0,9.1,5,15,12.3,16.6c6.6,1.4,13.8-2.3,16.5-8.7c0.5-1.1,0.3-2.8,0-4c-1-3.7-2.1-7.3-3.3-10.8c-0.5-1.5-1.2-3.3-2.3-4.1
		c-4.9-3.2-10.1-3.3-15.2-0.5C175.1,102.1,172.5,106.7,172.4,110.9z M267.8,136.1c-8.3,0.1-19.1,10.8-18.5,17.4c6.1,0,12.3,0,18.5,0
		C267.8,147.5,267.8,141.9,267.8,136.1z M107.4,153.5c5.7,0,11.3,0,17,0c-1.2-8.1-9.8-16.5-17.2-16.9c0,5,0,9.9,0,14.9
		C107.2,152.1,107.3,152.7,107.4,153.5z M107.4,88.8c8.7-2,16.7-10.2,16.8-17.2c-5.6,0-11.1,0-16.8,0
		C107.4,77.5,107.4,83,107.4,88.8z" />
    <path d="M0,289.9c3.4-9.7,10.5-13.3,20.4-12.6c3.6,0.3,7.3,0,10.9,0.3c4.9,0.5,8.8,2.9,11.3,7.1c1.1,1.9,2.5,2.2,4.5,2.5
		c5,0.6,9.1-0.7,11.8-5.2c1-1.6,2-3.5,2-5.3c0.1-19.5,0.1-39,0.1-58.5c0-2.2-0.4-3.6-2.5-4.8c-3.4-2-4.8-5.3-4.9-9.2
		c-0.1-5.1-0.2-10.3,0-15.4c0.3-6.9,4.9-11.4,11.9-11.4c45.6,0,91.2,0,136.9,0c7,0,11.6,4.5,11.8,11.4c0.2,5,0.1,10,0,15
		c0,4.3-1.8,7.7-5.4,10.1c-0.9,0.6-1.8,1.8-1.8,2.8c-0.1,11-0.1,21.9-0.1,33.9c1.6-1.6,2.6-2.6,3.7-3.5c6.2-5.4,12.2-11.1,18.8-16
		c5.7-4.3,12.4-6.6,19.7-6.2c9.8,0.5,16.8,5.6,20.3,14.7c3.5,9.1,2.9,18-4,25.5c-17.3,18.6-34.6,37.1-52,55.6
		c-6.7,7.1-13.4,14.1-20,21.4c-10,11.1-22.3,16.3-37.2,16.2c-36-0.1-72,0-108-0.1c-2.6,0-4.3,0.6-5.8,3c-2.7,4.3-6.8,6.6-11.9,6.7
		c-5.1,0.2-10.3,0.2-15.4,0c-7.9-0.3-12.1-5.4-15-12.2C0,333.9,0,311.9,0,289.9z M45.4,346.1c1,0.1,1.9,0.3,2.7,0.3
		c36.5,0,73,0,109.4,0c10.5,0,19.1-4,26.2-11.6c23.9-25.7,48-51.3,72-76.9c4.2-4.5,4.6-10.5,1.3-15.8c-2.8-4.5-7.6-6.2-13.5-4.4
		c-3.2,1-6.3,2.5-9,4.4c-4.1,3-8.1,6.3-11.7,9.9c-11.6,11.5-23.2,23.1-34.6,34.9c-9.3,9.6-20.3,14.6-33.7,14.5
		c-15.2,0-30.5,0.1-45.7,0.1c-4.9,0-7.5-2.1-7.5-5.9c0-3.7,2.7-6.1,7.4-6.1c12.7-0.1,25.5,0,38.2,0c1.2,0,2.5,0,3.7,0
		c5.6-0.3,9.8-4.1,10.5-9.4c0.7-5.1-2.8-10.1-8.1-11.5c-1.8-0.4-3.7-0.2-5.6-0.3c-11.7-0.7-23.4-0.8-35.1-2.1
		c-11.4-1.3-21.4,0.9-29.7,8.9c-6.9,6.7-13.6,13.6-20.1,20.7c-2.3,2.5-4.8,3.7-8.2,3.5c-2.9-0.2-5.9,0-9,0
		C45.4,315,45.4,330.5,45.4,346.1z M173.7,284c6.8-6.8,13.6-13.5,20.2-20.4c0.8-0.8,0.7-2.6,0.7-3.9c0.1-12.2,0-24.5,0-36.7
		c0-2.3,0-4.7,0-7.2c-14.1,0-27.8,0-41.5,0c0,13.6,0,26.9,0,40.1C167.2,259.1,174.9,269.8,173.7,284z M73.1,215.8
		c0,17.1,0,33.9,0,51.6c11.9-11.4,25.5-15.9,41.3-13c0-13.3,0-25.9,0-38.6C100.7,215.8,87.1,215.8,73.1,215.8z M33.2,322.9
		c0-9.5,0-19,0-28.5c0-3.4-1.5-5.1-4.9-5.2c-3.9,0-7.7-0.1-11.6,0c-2.9,0.1-4.7,1.5-4.7,4.7c0,19.2,0,38.5,0,57.7
		c0,3.1,1.7,4.5,4.7,4.5c3.6,0,7.2,0,10.9,0c4.6,0,5.5-0.9,5.5-5.5C33.2,341.4,33.2,332.1,33.2,322.9z M126.9,189.6
		c0,22.3,0,44.2,0,66.6c4.8,0,9.4,0,13.9,0c0-22.3,0-44.4,0-66.6C136.2,189.6,131.7,189.6,126.9,189.6z M114.4,189.7
		c-16.3,0-32.5,0-48.7,0c0,4.7,0,9.2,0,13.6c16.3,0,32.4,0,48.7,0C114.4,198.7,114.4,194.3,114.4,189.7z M201.9,189.8
		c-16.4,0-32.5,0-48.6,0c0,4.8,0,9.2,0,13.6c16.4,0,32.4,0,48.6,0C201.9,198.6,201.9,194.2,201.9,189.8z" />
</g>
</svg>
