<?xml version="1.0" standalone="no"?><!DOCTYPE svg PUBLIC "-//W3C//DTD SVG 20010904//EN"
    "http://www.w3.org/TR/2001/REC-SVG-20010904/DTD/svg10.dtd">
<svg height="512.000000pt" preserveAspectRatio="xMidYMid meet" version="1.0"
    viewBox="0 0 512.000000 512.000000" width="512.000000pt" xmlns="http://www.w3.org/2000/svg">
    <metadata>
        Created by potrace 1.16, written by Peter Selinger 2001-2019
    </metadata>
    <g fill="#FF0000" stroke="none"
        transform="translate(0.000000,512.000000) scale(0.100000,-0.100000)">
        <path d="M1129 4805 c-474 -80 -870 -423 -1038 -900 -72 -202 -95 -364 -88
-611 7 -266 49 -434 168 -680 172 -355 478 -709 1064 -1230 286 -254 1238
-1069 1258 -1077 24 -9 110 -9 134 0 20 8 971 822 1258 1077 774 688 1095
1123 1205 1631 28 126 38 414 20 549 -45 338 -174 619 -387 846 -255 271 -580
410 -959 410 -280 0 -509 -74 -735 -236 -146 -106 -324 -303 -425 -472 -20
-34 -40 -62 -44 -62 -4 0 -24 28 -44 62 -62 102 -169 238 -261 330 -196 195
-429 320 -674 362 -113 19 -341 20 -452 1z" />
    </g>
</svg>
