<?xml version="1.0" standalone="no"?><!DOCTYPE svg PUBLIC "-//W3C//DTD SVG 20010904//EN"
    "http://www.w3.org/TR/2001/REC-SVG-20010904/DTD/svg10.dtd">
<svg height="512.000000pt" preserveAspectRatio="xMidYMid meet" version="1.0"
    viewBox="0 0 512.000000 512.000000" width="512.000000pt" xmlns="http://www.w3.org/2000/svg">

    <g fill="#000000" stroke="none"
        transform="translate(0.000000,512.000000) scale(0.100000,-0.100000)">
        <path d="M2410 5113 c-134 -11 -342 -70 -486 -139 -352 -167 -640 -499 -757
-871 -53 -166 -59 -223 -66 -628 l-6 -380 -72 -7 c-181 -18 -320 -113 -400
-274 l-37 -76 -7 -217 c-10 -282 -10 -1675 0 -1948 l7 -211 39 -79 c52 -105
129 -181 232 -231 l78 -37 230 -7 c299 -8 2491 -8 2790 0 l230 7 79 38 c101
48 180 127 232 232 l38 77 7 211 c10 274 10 1668 0 1947 -7 206 -8 218 -34
275 -39 83 -97 155 -166 203 -81 58 -152 83 -251 90 l-85 7 -6 385 c-7 410
-11 454 -61 610 -185 578 -688 980 -1278 1020 -144 10 -163 10 -250 3z m303
-729 c40 -9 115 -36 167 -61 81 -39 108 -59 186 -137 81 -81 98 -104 142 -196
28 -58 56 -130 62 -160 7 -32 14 -195 17 -391 l6 -336 -129 -6 c-71 -4 -402
-7 -736 -7 l-608 0 0 364 0 365 29 75 c42 110 94 198 158 267 100 107 240 192
371 224 79 19 247 18 335 -1z m603 -2028 c84 -39 131 -122 122 -217 -5 -53
-56 -141 -473 -824 -347 -568 -345 -566 -459 -573 -85 -6 -124 13 -181 85 -72
91 -497 731 -533 802 -36 72 -40 122 -16 179 48 115 185 169 292 113 47 -24
74 -59 285 -366 67 -99 127 -180 132 -180 5 0 129 198 276 440 146 242 286
462 310 488 71 78 154 96 245 53z" />
    </g>
</svg>
