<?xml version="1.0" standalone="no"?><!DOCTYPE svg PUBLIC "-//W3C//DTD SVG 20010904//EN"
    "http://www.w3.org/TR/2001/REC-SVG-20010904/DTD/svg10.dtd">
<svg height="512.000000pt" preserveAspectRatio="xMidYMid meet" version="1.0" viewBox="0 0 512.000000 512.000000"
    width="512.000000pt" xmlns="http://www.w3.org/2000/svg">

    <g fill="#000000" stroke="none"
        transform="translate(0.000000,512.000000) scale(0.100000,-0.100000)">
        <path d="M396 4777 c-21 -12 -47 -38 -57 -57 -18 -33 -19 -110 -19 -2158 0
-2108 0 -2123 20 -2162 13 -26 34 -47 60 -60 39 -20 54 -20 2160 -20 2106 0
2121 0 2160 20 26 13 47 34 60 60 20 39 20 54 20 2160 0 2106 0 2121 -20 2160
-13 26 -34 47 -60 60 -39 20 -54 20 -2162 20 l-2123 0 -39 -23z m4104 -2217
l0 -1940 -1940 0 -1940 0 0 1940 0 1940 1940 0 1940 0 0 -1940z" />
        <path d="M1300 2692 c-50 -25 -80 -75 -80 -132 0 -57 30 -107 80 -132 33 -17
114 -18 1260 -18 1146 0 1227 1 1260 18 107 53 107 211 0 264 -33 17 -114 18
-1260 18 -1146 0 -1227 -1 -1260 -18z" />
    </g>
</svg>
