<?xml version="1.0" standalone="no"?><!DOCTYPE svg PUBLIC "-//W3C//DTD SVG 20010904//EN"
    "http://www.w3.org/TR/2001/REC-SVG-20010904/DTD/svg10.dtd">
<svg height="600.000000pt" preserveAspectRatio="xMidYMid meet" version="1.0"
    viewBox="0 0 600.000000 600.000000" width="600.000000pt" xmlns="http://www.w3.org/2000/svg">

    <g fill="#000000" stroke="none"
        transform="translate(0.000000,600.000000) scale(0.100000,-0.100000)">
        <path d="M2775 5994 c-257 -20 -588 -94 -834 -186 -100 -38 -324 -143 -436
-205 -186 -103 -440 -299 -623 -482 -364 -363 -623 -800 -765 -1292 -34 -115
-68 -283 -99 -474 -17 -108 -17 -602 0 -710 65 -409 138 -653 282 -950 83
-170 111 -218 206 -361 215 -322 506 -613 828 -828 143 -95 191 -123 361 -206
224 -109 475 -195 685 -234 47 -9 108 -20 135 -26 157 -29 226 -34 485 -34
173 0 305 4 355 12 407 65 654 138 950 282 170 83 218 111 361 206 322 215
613 506 828 828 95 143 123 191 206 361 109 224 195 475 234 685 9 47 20 108
26 135 29 157 34 226 34 485 0 173 -4 305 -12 355 -65 407 -138 654 -282 950
-83 170 -111 218 -206 361 -215 322 -506 613 -828 828 -143 95 -191 123 -361
206 -291 142 -539 217 -915 276 -92 14 -505 26 -615 18z m366 -1131 c72 -148
213 -432 311 -633 99 -201 182 -367 183 -368 2 -2 82 -15 177 -28 95 -14 245
-36 333 -49 88 -13 198 -29 245 -35 47 -6 153 -22 235 -35 83 -13 212 -31 288
-41 75 -10 137 -20 137 -24 0 -3 -118 -121 -262 -261 -144 -140 -293 -285
-333 -324 -39 -38 -151 -148 -249 -244 l-177 -173 9 -57 c6 -31 29 -164 52
-296 108 -627 179 -1049 176 -1053 -4 -4 -112 51 -314 159 -101 55 -185 99
-187 99 -2 0 -66 33 -142 74 -76 40 -187 99 -248 131 -60 31 -170 89 -242 127
l-133 70 -132 -70 c-73 -38 -182 -95 -243 -127 -60 -31 -137 -72 -170 -90 -33
-18 -136 -72 -230 -120 -93 -48 -174 -91 -180 -95 -16 -12 -304 -160 -311
-160 -4 0 -3 15 0 33 4 17 22 122 41 232 39 229 102 599 147 855 16 96 34 200
40 231 l9 57 -177 173 c-229 225 -270 265 -582 568 -144 140 -262 258 -262
261 0 4 62 14 137 24 76 10 206 28 288 41 83 13 188 29 235 35 47 6 157 22
245 35 88 13 238 36 333 49 96 13 175 26 176 28 2 2 83 165 181 363 97 198
238 483 312 633 74 149 138 272 143 272 5 0 68 -120 141 -267z" />
        <path d="M2955 4263 c-21 -43 -110 -223 -197 -400 -154 -312 -160 -323 -191
-328 -62 -10 -355 -54 -610 -92 l-259 -37 134 -130 c73 -71 219 -214 324 -318
l190 -188 -22 -138 c-12 -75 -44 -258 -70 -407 -26 -148 -49 -287 -52 -309
l-4 -38 168 87 c93 49 222 117 286 152 64 34 119 63 122 63 3 0 55 27 115 60
l110 60 111 -60 c61 -33 113 -60 116 -60 3 0 58 -29 122 -64 64 -35 193 -103
286 -151 l169 -87 -6 38 c-3 22 -24 147 -47 279 -23 132 -54 315 -69 407 l-27
168 190 188 c105 104 251 247 325 318 l133 130 -258 37 c-257 38 -549 82 -611
92 -31 6 -37 16 -230 405 -108 220 -200 400 -203 400 -4 0 -24 -35 -45 -77z" />
    </g>
</svg>
