<?xml version="1.0" standalone="no"?>
<!DOCTYPE svg PUBLIC "-//W3C//DTD SVG 20010904//EN"
 "http://www.w3.org/TR/2001/REC-SVG-20010904/DTD/svg10.dtd">
<svg version="1.0" xmlns="http://www.w3.org/2000/svg"
 width="512.000000pt" height="512.000000pt" viewBox="0 0 512.000000 512.000000"
 preserveAspectRatio="xMidYMid meet">

<g transform="translate(0.000000,512.000000) scale(0.100000,-0.100000)"
fill="#000000" stroke="none">
<path d="M2375 5105 c-476 -74 -859 -396 -1010 -847 -58 -173 -65 -250 -65
-700 l0 -398 -162 0 c-90 0 -179 -4 -198 -10 -47 -13 -106 -63 -133 -113 -21
-40 -22 -56 -25 -304 l-3 -263 -197 0 c-220 0 -248 -7 -309 -71 -66 -70 -63
-29 -63 -878 l0 -769 28 -53 c21 -42 40 -61 82 -86 l54 -33 202 0 201 0 5
-113 c4 -87 10 -121 26 -153 22 -44 68 -88 111 -107 19 -9 239 -13 765 -17
l740 -5 50 -87 c75 -130 97 -130 172 0 l50 87 740 5 c697 5 741 6 774 24 95
50 121 103 128 253 l5 113 201 0 202 0 54 33 c42 25 61 44 82 86 l28 53 0 769
c0 849 3 808 -63 878 -61 64 -89 71 -309 71 l-196 0 -4 263 c-3 248 -4 264
-25 304 -27 50 -86 100 -133 113 -19 6 -108 10 -197 10 l-163 0 0 398 c0 450
-7 527 -65 700 -129 385 -434 684 -821 805 -167 53 -388 69 -559 42z m420
-355 c311 -82 569 -340 657 -655 21 -76 22 -103 26 -507 l3 -428 -921 0 -921
0 3 433 c4 413 5 435 27 506 106 354 373 598 726 667 99 19 297 12 400 -16z
m1977 -2418 l33 -32 0 -776 0 -776 -37 -34 -38 -34 -925 0 c-870 0 -926 -1
-942 -18 -10 -9 -81 -126 -158 -260 -76 -133 -142 -242 -145 -242 -3 0 -69
109 -145 242 -77 134 -148 251 -157 260 -17 17 -73 18 -943 18 l-925 0 -38 34
-37 34 0 775 0 775 25 27 c14 15 34 31 45 35 11 5 995 8 2187 7 l2168 -2 32
-33z"/>
<path d="M1058 1948 c-9 -7 -39 -67 -68 -133 -29 -66 -53 -121 -54 -122 0 -1
-64 -8 -141 -17 -109 -12 -142 -19 -152 -32 -26 -36 -21 -42 160 -205 l39 -34
-27 -127 c-31 -147 -30 -169 6 -182 21 -7 43 1 141 58 63 36 120 66 126 66 6
0 61 -29 123 -66 61 -36 121 -64 132 -62 11 2 25 12 32 23 13 20 9 42 -38 260
-6 28 -1 36 98 123 58 52 105 101 105 111 0 43 -22 53 -156 67 -71 8 -134 16
-140 18 -5 2 -34 59 -64 126 -59 135 -82 159 -122 128z"/>
<path d="M2528 1943 c-9 -10 -37 -67 -63 -128 -27 -60 -51 -113 -54 -117 -3
-4 -66 -13 -139 -21 -203 -23 -210 -41 -62 -177 55 -51 100 -100 100 -109 0
-9 -12 -71 -27 -138 -25 -119 -25 -124 -8 -143 10 -11 25 -20 33 -20 8 0 66
29 128 65 62 36 118 65 124 65 6 0 62 -29 124 -65 62 -36 120 -65 128 -65 8 0
23 9 33 20 17 19 17 24 -8 143 -15 67 -27 129 -27 138 0 8 45 57 100 108 103
95 118 123 85 151 -9 7 -75 19 -148 27 -72 8 -135 17 -138 21 -3 4 -27 57 -54
117 -51 119 -69 145 -95 145 -9 0 -24 -8 -32 -17z"/>
<path d="M4007 1948 c-9 -7 -39 -65 -67 -128 -28 -63 -54 -118 -59 -122 -4 -5
-66 -14 -139 -22 -205 -21 -211 -41 -57 -178 99 -88 105 -95 99 -123 -56 -245
-57 -275 -7 -283 10 -2 71 27 134 63 62 35 118 65 124 65 5 0 61 -30 123 -66
118 -68 154 -76 169 -37 5 13 -14 128 -44 268 -3 16 19 41 96 109 105 93 119
113 102 144 -12 22 -29 26 -187 43 l-110 11 -53 122 c-50 115 -71 146 -96 146
-6 0 -19 -6 -28 -12z"/>
</g>
</svg>
