<?xml version="1.0" standalone="no"?><!DOCTYPE svg PUBLIC "-//W3C//DTD SVG 20010904//EN"
    "http://www.w3.org/TR/2001/REC-SVG-20010904/DTD/svg10.dtd">
<svg height="512.000000pt" preserveAspectRatio="xMidYMid meet" version="1.0" viewBox="0 0 512.000000 512.000000"
    width="512.000000pt" xmlns="http://www.w3.org/2000/svg">

    <g fill="#000000" stroke="none"
        transform="translate(0.000000,512.000000) scale(0.100000,-0.100000)">
        <path d="M2782 5110 c-335 -42 -672 -222 -895 -476 -143 -164 -259 -384 -311
-589 -204 -805 312 -1608 1129 -1761 137 -26 373 -26 510 0 587 109 1041 564
1151 1151 26 137 26 373 0 510 -109 581 -561 1039 -1138 1150 -100 19 -345 27
-446 15z m413 -315 c205 -43 407 -154 561 -309 99 -100 156 -178 214 -295 183
-365 152 -796 -80 -1142 -56 -82 -207 -233 -289 -289 -395 -266 -887 -265
-1285 2 -79 54 -231 206 -286 287 -308 459 -254 1050 134 1437 171 172 381
280 616 319 106 18 305 13 415 -10z" />
        <path d="M2886 4496 c-43 -26 -75 -76 -76 -118 0 -21 -10 -32 -53 -56 -165
-93 -240 -311 -165 -483 41 -98 172 -188 382 -265 43 -16 89 -40 102 -53 46
-46 24 -145 -43 -188 -20 -13 -46 -18 -103 -18 -66 1 -84 5 -150 38 -87 43
-108 45 -166 16 -47 -22 -84 -82 -84 -133 0 -77 87 -156 214 -195 57 -17 61
-21 68 -56 17 -81 85 -131 164 -122 75 8 134 72 134 145 0 26 7 33 54 57 77
39 150 116 194 204 36 73 37 78 37 185 0 99 -3 117 -27 168 -31 67 -96 140
-152 173 -23 13 -88 42 -146 64 -142 56 -204 91 -208 118 -6 40 25 81 69 93
51 14 90 6 157 -32 45 -25 62 -30 102 -26 62 6 104 37 126 93 15 39 15 52 4
88 -16 53 -67 102 -147 140 -46 21 -63 34 -63 48 0 40 -40 98 -80 119 -52 26
-96 25 -144 -4z" />
        <path d="M1065 2369 c-33 -5 -91 -18 -130 -29 -65 -20 -822 -356 -873 -388
-30 -19 -62 -83 -62 -122 0 -77 74 -150 151 -150 20 0 170 63 397 166 467 212
439 201 534 220 98 20 213 14 310 -16 36 -11 276 -114 534 -230 412 -185 473
-215 505 -250 92 -101 69 -258 -49 -327 -38 -23 -58 -28 -107 -27 -55 1 -89
14 -440 174 -209 94 -399 179 -423 187 -55 20 -103 10 -147 -28 -66 -58 -69
-155 -7 -215 26 -25 764 -363 867 -397 277 -91 576 82 652 376 11 43 14 87 10
144 l-5 82 32 6 c40 9 751 171 1256 286 346 80 404 90 465 86 114 -7 204 -67
255 -172 36 -74 35 -189 -2 -265 -15 -30 -42 -70 -60 -87 -18 -17 -413 -256
-878 -530 -662 -390 -863 -504 -928 -526 -100 -34 -221 -45 -315 -28 -37 6
-363 115 -724 241 -360 127 -668 230 -683 230 -27 0 -1079 -395 -1130 -424
-33 -19 -70 -83 -70 -124 0 -75 75 -152 148 -152 17 0 261 88 543 195 l512
196 626 -220 c344 -120 653 -225 686 -232 33 -7 121 -13 195 -14 153 0 236 15
365 68 44 18 413 229 820 469 1062 625 977 572 1055 654 230 243 226 608 -10
845 -122 122 -259 179 -431 179 -69 0 -213 -30 -985 -206 l-903 -205 -39 31
c-45 36 -978 458 -1092 495 -134 42 -285 54 -425 34z" />
    </g>
</svg>
