<?xml version="1.0" standalone="no"?>
<!DOCTYPE svg PUBLIC "-//W3C//DTD SVG 20010904//EN"
 "http://www.w3.org/TR/2001/REC-SVG-20010904/DTD/svg10.dtd">
<svg version="1.0" xmlns="http://www.w3.org/2000/svg"
 width="512.000000pt" height="512.000000pt" viewBox="0 0 512.000000 512.000000"
 preserveAspectRatio="xMidYMid meet">

<g transform="translate(0.000000,512.000000) scale(0.100000,-0.100000)"
fill="#000000" stroke="none">
<path d="M786 4789 c-62 -15 -153 -68 -197 -116 -22 -24 -55 -74 -72 -111
l-32 -67 0 -1936 0 -1935 37 -76 c45 -91 103 -147 196 -191 l67 -32 1055 0
1055 0 67 32 c93 44 151 100 196 191 l37 76 3 343 3 343 -25 25 c-33 33 -79
33 -111 0 -25 -24 -25 -27 -25 -200 l0 -175 -1200 0 -1200 0 0 1520 0 1520
1200 0 1200 0 0 -175 c0 -173 0 -176 25 -200 32 -33 78 -33 111 0 l25 25 -3
423 -3 423 -37 76 c-45 91 -103 147 -196 191 l-67 32 -1035 2 c-604 1 -1051
-3 -1074 -8z m1349 -334 c16 -15 25 -36 25 -55 0 -19 -9 -40 -25 -55 l-24 -25
-271 0 -271 0 -24 25 c-16 15 -25 36 -25 55 0 19 9 40 25 55 l24 25 271 0 271
0 24 -25z"/>
<path d="M1920 3427 c-49 -16 -133 -102 -148 -153 -17 -59 -17 -1529 0 -1588
16 -55 99 -138 154 -154 32 -9 336 -12 1276 -12 1397 0 1294 -6 1371 80 24 26
49 66 55 88 17 56 17 1528 0 1584 -6 22 -31 62 -55 88 -77 86 27 80 -1377 79
-874 -1 -1251 -4 -1276 -12z m2400 -161 c-83 -78 -1116 -916 -1125 -912 -11 4
-1074 875 -1115 912 -12 12 161 14 1120 14 966 0 1132 -2 1120 -14z m-1421
-891 c0 -5 -187 -163 -415 -350 -410 -336 -415 -340 -464 -343 -42 -3 -54 1
-75 22 -14 14 -25 34 -25 45 0 14 127 124 431 375 l432 355 58 -47 c32 -26 58
-51 58 -57z m1159 -259 c297 -245 422 -353 422 -367 0 -11 -11 -31 -25 -44
-19 -20 -34 -25 -72 -25 l-48 0 -420 347 c-231 190 -419 348 -418 351 5 15
120 98 128 92 6 -3 200 -163 433 -354z"/>
</g>
</svg>
