<?xml version="1.0" standalone="no"?>
<!DOCTYPE svg PUBLIC "-//W3C//DTD SVG 20010904//EN"
 "http://www.w3.org/TR/2001/REC-SVG-20010904/DTD/svg10.dtd">
<svg version="1.0" xmlns="http://www.w3.org/2000/svg"
 width="512.000000pt" height="512.000000pt" viewBox="0 0 512.000000 512.000000"
 preserveAspectRatio="xMidYMid meet">

<g transform="translate(0.000000,512.000000) scale(0.100000,-0.100000)"
fill="#000000" stroke="none">
<path d="M223 5101 c-72 -24 -127 -65 -163 -120 -65 -97 -60 78 -58 -2441 l3
-2295 26 -56 c33 -71 87 -125 158 -158 l56 -26 2315 0 2315 0 56 26 c71 33
125 87 158 158 l26 56 0 2315 0 2315 -26 56 c-33 71 -87 125 -158 158 l-56 26
-2300 2 c-2193 2 -2302 2 -2352 -16z m4577 -2541 l0 -2240 -2240 0 -2240 0 0
2240 0 2240 2240 0 2240 0 0 -2240z"/>
<path d="M2400 3280 l0 -560 -560 0 -560 0 0 -160 0 -160 560 0 560 0 0 -560
0 -560 160 0 160 0 0 560 0 560 560 0 560 0 0 160 0 160 -560 0 -560 0 0 560
0 560 -160 0 -160 0 0 -560z"/>
</g>
</svg>
