<?xml version="1.0" standalone="no"?><!DOCTYPE svg PUBLIC "-//W3C//DTD SVG 20010904//EN"
    "http://www.w3.org/TR/2001/REC-SVG-20010904/DTD/svg10.dtd">
<svg height="512.000000pt" preserveAspectRatio="xMidYMid meet" version="1.0" viewBox="0 0 512.000000 512.000000"
    width="512.000000pt" xmlns="http://www.w3.org/2000/svg">

    <g fill="#000000" stroke="none"
        transform="translate(0.000000,512.000000) scale(0.100000,-0.100000)">
        <path d="M0 2560 l0 -2560 2560 0 2560 0 0 2560 0 2560 -2560 0 -2560 0 0
-2560z m3270 1304 c631 -246 665 -261 688 -294 l23 -35 -3 -630 c-4 -609 -5
-634 -27 -739 -50 -240 -156 -489 -288 -676 -98 -139 -303 -339 -437 -429
-185 -123 -369 -204 -569 -252 l-99 -23 -111 28 c-430 110 -790 367 -1031 738
-113 174 -201 392 -247 614 -22 105 -23 130 -27 739 l-3 630 23 35 c22 33 58
48 698 297 536 209 682 263 710 259 19 -2 334 -120 700 -262z" />
        <path d="M1965 3651 l-580 -227 0 -564 c0 -547 1 -568 23 -667 61 -281 189
-524 377 -722 85 -89 200 -185 291 -243 106 -68 284 -145 409 -177 l76 -19 87
23 c114 30 175 55 302 121 140 73 255 160 375 286 196 204 325 447 387 731 22
99 23 120 23 667 l0 565 -585 227 c-322 125 -589 227 -595 227 -5 -1 -271
-103 -590 -228z m1224 -737 c17 -14 34 -40 39 -57 19 -72 18 -74 -312 -405
-171 -173 -323 -320 -338 -328 -15 -8 -46 -14 -69 -14 -42 0 -46 3 -227 183
-101 100 -190 194 -198 209 -46 87 28 191 124 173 30 -5 63 -33 175 -143 l137
-136 273 272 273 272 46 0 c35 0 54 -6 77 -26z" />
    </g>
</svg>
