<?xml version="1.0" standalone="no"?><!DOCTYPE svg PUBLIC "-//W3C//DTD SVG 20010904//EN"
    "http://www.w3.org/TR/2001/REC-SVG-20010904/DTD/svg10.dtd">
<svg height="512.000000pt" preserveAspectRatio="xMidYMid meet" version="1.0" viewBox="0 0 512.000000 512.000000"
    width="512.000000pt" xmlns="http://www.w3.org/2000/svg">

    <g fill="#000000" stroke="none"
        transform="translate(0.000000,512.000000) scale(0.100000,-0.100000)">
        <path d="M2473 5102 c-184 -66 -275 -248 -216 -432 l17 -51 -616 -616 -616
-616 -57 18 c-41 13 -77 16 -129 13 -127 -9 -222 -73 -278 -186 -30 -60 -33
-75 -33 -152 1 -146 -15 -126 557 -696 567 -566 533 -539 688 -539 73 0 93 4
141 28 64 31 126 93 160 159 31 60 38 186 14 258 l-17 52 158 159 159 159
1025 -1024 c1119 -1117 1060 -1064 1204 -1089 277 -47 526 202 479 479 -25
144 28 85 -1089 1204 l-1024 1025 159 159 159 158 52 -17 c72 -24 198 -17 258
14 66 34 128 96 159 160 24 48 28 68 28 141 0 155 27 121 -539 688 -395 396
-512 508 -553 528 -70 35 -178 42 -250 16z m154 -192 c32 -12 956 -930 979
-972 18 -35 18 -91 -1 -129 -38 -72 -141 -92 -211 -40 -68 50 -932 925 -943
954 -27 71 -5 139 58 176 40 23 76 26 118 11z m-64 -1812 l-608 -608 -382 382
-383 383 607 607 608 608 382 -382 383 -383 -607 -607z m-1626 111 c29 -11
904 -875 954 -943 50 -68 35 -165 -34 -206 -38 -23 -97 -26 -135 -6 -42 23
-960 947 -972 979 -15 43 -12 75 12 118 34 60 105 84 175 58z m2066 -237 l137
-137 -158 -158 -157 -157 -140 140 -140 140 155 155 c85 85 157 155 160 155 3
0 67 -62 143 -138z m1894 -1920 c85 -174 -91 -365 -275 -297 -41 15 -154 124
-850 819 l-802 801 157 157 158 158 793 -792 c642 -642 798 -803 819 -846z" />
        <path d="M709 1626 c-103 -28 -190 -103 -237 -205 -24 -50 -27 -71 -30 -198
l-4 -143 -93 0 c-130 0 -185 -19 -255 -90 -89 -88 -90 -94 -90 -536 0 -401 1
-414 51 -440 42 -21 3656 -21 3698 0 50 26 51 39 51 440 0 442 -1 448 -90 536
-70 71 -125 90 -255 90 l-93 0 -3 143 c-4 137 -5 145 -37 209 -38 78 -101 139
-180 176 l-57 27 -1165 2 c-902 1 -1175 -1 -1211 -11z m2366 -209 c22 -13 49
-40 62 -62 20 -35 23 -54 23 -157 l0 -118 -415 0 c-445 0 -455 -1 -481 -51
-27 -52 -8 -115 41 -137 19 -9 183 -12 631 -12 l606 0 29 -29 29 -29 0 -311 0
-311 -1700 0 -1700 0 0 311 0 311 29 29 29 29 606 0 c448 0 612 3 631 12 47
21 67 82 43 133 -25 54 -32 55 -483 55 l-415 0 0 118 c0 103 3 122 23 157 13
22 40 49 62 62 l40 23 1135 0 1135 0 40 -23z" />
        <path d="M1851 1066 c-87 -48 -50 -186 49 -186 51 0 100 49 100 99 0 75 -83
124 -149 87z" />
    </g>
</svg>
