<?xml version="1.0" standalone="no"?><!DOCTYPE svg PUBLIC "-//W3C//DTD SVG 20010904//EN"
    "http://www.w3.org/TR/2001/REC-SVG-20010904/DTD/svg10.dtd">
<svg height="600.000000pt" preserveAspectRatio="xMidYMid meet" version="1.0" viewBox="0 0 600.000000 600.000000"
    width="600.000000pt" xmlns="http://www.w3.org/2000/svg">

    <g fill="#000000" stroke="none"
        transform="translate(0.000000,600.000000) scale(0.100000,-0.100000)">
        <path d="M2795 5993 c-331 -27 -630 -95 -906 -206 -981 -394 -1676 -1259
-1848 -2299 -270 -1631 837 -3176 2471 -3447 1631 -270 3176 837 3447 2471
205 1237 -383 2470 -1476 3095 -370 213 -802 346 -1238 383 -111 9 -357 11
-450 3z m345 -1219 c25 -9 56 -25 70 -35 22 -14 33 -16 78 -7 69 14 179 -4
245 -39 26 -15 72 -50 100 -79 41 -40 61 -53 95 -59 64 -10 152 -59 203 -112
45 -46 99 -134 99 -160 0 -7 24 -28 54 -48 116 -77 176 -176 184 -304 4 -67 8
-80 35 -110 16 -19 42 -60 56 -90 23 -50 26 -68 25 -161 0 -73 -5 -115 -16
-139 -14 -31 -14 -38 4 -90 41 -116 11 -280 -69 -371 -27 -31 -31 -44 -35
-111 -8 -128 -68 -227 -184 -304 -30 -20 -54 -41 -54 -48 0 -7 -14 -39 -30
-71 -17 -32 -30 -62 -30 -67 0 -4 39 -88 86 -186 179 -373 224 -472 224 -497
0 -41 -26 -82 -60 -96 -37 -15 -50 -13 -344 54 l-189 43 -107 -221 c-60 -122
-117 -229 -128 -239 -11 -10 -38 -21 -59 -24 -68 -9 -83 13 -243 346 -79 165
-146 299 -148 297 -2 -3 -67 -136 -144 -298 -76 -161 -150 -304 -164 -318 -32
-32 -101 -35 -135 -5 -12 11 -71 120 -131 242 l-108 221 -57 -13 c-310 -73
-433 -97 -458 -91 -15 4 -38 19 -51 33 -41 44 -33 81 57 269 44 93 115 241
156 328 l76 159 -32 57 c-17 32 -31 65 -31 73 0 9 -24 32 -54 52 -117 77 -178
178 -184 305 -4 66 -8 79 -35 110 -80 91 -110 251 -70 370 17 53 17 57 0 105
-12 36 -16 74 -14 140 3 100 28 171 84 235 27 31 31 44 35 110 6 126 71 233
184 306 35 22 54 42 58 61 29 115 171 237 300 258 32 6 51 18 86 55 25 26 70
62 100 79 69 38 183 58 250 44 40 -8 51 -6 101 19 31 15 73 32 95 37 54 14
170 6 224 -15z" />
        <path d="M2955 4583 c-11 -3 -44 -23 -74 -44 -61 -44 -91 -48 -165 -23 -88 30
-163 -1 -221 -92 -39 -60 -63 -74 -133 -74 -99 -1 -173 -64 -188 -160 -10 -64
-36 -96 -94 -115 -54 -18 -115 -76 -126 -121 -4 -14 -4 -59 0 -100 l7 -75 -54
-57 c-30 -31 -59 -67 -66 -79 -20 -39 -13 -116 15 -169 14 -27 26 -62 26 -79
0 -17 -12 -52 -26 -79 -28 -53 -35 -130 -15 -169 7 -12 36 -48 66 -79 l54 -57
-7 -75 c-4 -41 -4 -86 0 -100 11 -45 72 -103 126 -121 61 -20 85 -50 94 -113
13 -97 89 -162 191 -162 66 0 92 -14 130 -74 60 -94 136 -123 237 -87 66 23
89 19 141 -21 97 -75 172 -75 265 2 42 35 85 39 153 14 83 -29 169 3 214 80
40 68 56 78 139 86 119 12 173 59 191 167 9 56 37 90 86 104 53 16 115 71 129
115 8 23 10 61 6 105 -8 79 -2 94 56 147 76 68 88 146 38 247 -17 33 -30 64
-30 70 0 6 13 37 30 70 50 101 38 179 -38 247 -58 52 -65 69 -57 143 4 34 4
77 0 95 -11 49 -68 106 -125 125 -59 20 -86 50 -95 108 -18 108 -72 155 -191
167 -83 8 -99 18 -139 86 -45 77 -131 109 -214 80 -68 -25 -111 -21 -153 14
-63 52 -121 68 -183 53z m199 -278 c560 -98 897 -649 729 -1190 -117 -378
-485 -645 -887 -645 -71 0 -212 25 -289 51 -294 101 -520 346 -599 652 -31
119 -31 328 1 447 126 470 578 766 1045 685z" />
        <path d="M2900 4100 c-158 -25 -281 -89 -396 -204 -90 -92 -144 -178 -182
-294 -32 -99 -36 -281 -9 -382 32 -123 93 -226 187 -320 94 -94 163 -139 267
-175 261 -91 527 -33 732 160 119 111 188 253 212 433 22 161 -26 347 -125
486 -96 134 -250 242 -402 280 -77 20 -213 27 -284 16z m553 -410 c32 -36 35
-79 8 -124 -11 -17 -125 -135 -254 -263 -253 -250 -271 -263 -333 -230 -16 9
-98 85 -182 170 -139 139 -154 158 -159 195 -4 30 -1 49 11 68 22 33 78 56
114 48 16 -4 75 -54 145 -123 l117 -115 203 201 c111 110 209 203 217 207 33
12 85 -3 113 -34z" />
        <path d="M2122 2049 c-54 -112 -95 -205 -91 -207 4 -2 76 13 160 32 173 41
216 44 250 17 13 -10 60 -92 104 -181 l80 -163 37 79 c20 43 70 150 112 236
l75 158 -40 23 c-36 22 -45 23 -90 14 -66 -13 -177 5 -243 41 -28 15 -73 50
-101 78 -36 37 -61 53 -88 58 -21 4 -45 10 -53 13 -10 4 -40 -50 -112 -198z" />
        <path d="M3728 2236 c-35 -8 -60 -24 -100 -64 -92 -92 -226 -137 -340 -114
-46 9 -56 8 -79 -9 -15 -10 -32 -19 -38 -19 -6 0 -11 -3 -11 -6 0 -3 50 -111
112 -240 l112 -235 83 165 c45 90 92 171 105 180 33 23 76 20 247 -20 84 -19
155 -33 158 -30 7 7 -181 399 -193 402 -5 1 -30 -4 -56 -10z" />
    </g>
</svg>
