<?xml version="1.0" standalone="no"?><!DOCTYPE svg PUBLIC "-//W3C//DTD SVG 20010904//EN"
    "http://www.w3.org/TR/2001/REC-SVG-20010904/DTD/svg10.dtd">
<svg height="512.000000pt" preserveAspectRatio="xMidYMid meet" version="1.0" viewBox="0 0 512.000000 512.000000"
    width="512.000000pt" xmlns="http://www.w3.org/2000/svg">

    <g fill="#000000" stroke="none"
        transform="translate(0.000000,512.000000) scale(0.100000,-0.100000)">
        <path d="M855 5106 c-84 -21 -147 -57 -211 -121 -65 -65 -105 -136 -123 -223
-16 -76 -16 -4329 0 -4404 37 -172 175 -310 347 -347 38 -8 510 -11 1700 -11
1801 0 1704 -3 1814 57 73 40 144 116 186 202 l37 75 0 2226 0 2226 -37 75
c-42 86 -113 162 -186 202 -111 60 -12 57 -1822 56 -1289 -1 -1666 -3 -1705
-13z m3375 -304 c19 -9 45 -32 57 -51 l23 -34 0 -2157 0 -2157 -23 -34 c-12
-19 -38 -42 -57 -51 -33 -17 -133 -18 -1669 -18 l-1633 0 -40 22 c-24 14 -48
38 -59 60 -18 36 -19 95 -19 2180 1 2044 2 2145 19 2177 10 18 35 44 57 57
l39 24 1635 0 c1537 0 1637 -1 1670 -18z" />
        <path d="M2230 4290 c-125 -26 -235 -116 -293 -238 -29 -60 -32 -76 -31 -157
1 -155 26 -194 349 -536 135 -143 231 -237 251 -245 44 -18 82 -17 121 4 43
23 474 480 523 555 57 86 73 143 68 241 -10 193 -145 344 -338 378 -85 14
-174 -2 -258 -48 l-63 -34 -37 24 c-82 51 -202 74 -292 56z m150 -330 c14 -16
35 -42 47 -58 12 -16 38 -37 57 -46 39 -18 117 -21 149 -5 33 17 77 60 93 91
20 38 68 61 110 54 43 -9 84 -57 84 -100 0 -41 -14 -60 -200 -260 l-155 -166
-113 117 c-156 163 -241 262 -249 291 -9 36 22 91 60 108 44 19 87 10 117 -26z" />
        <path d="M1526 2750 c-57 -29 -85 -58 -112 -115 -42 -88 -25 -205 39 -273 40
-44 111 -72 177 -72 73 0 114 16 168 65 127 114 86 334 -74 401 -49 21 -151
17 -198 -6z" />
        <path d="M2192 2663 c-52 -25 -77 -69 -77 -133 0 -65 26 -109 79 -134 32 -15
105 -16 765 -14 719 3 730 3 757 24 50 37 69 72 69 124 0 52 -19 87 -69 124
-27 21 -38 21 -759 23 -659 3 -735 1 -765 -14z" />
        <path d="M1526 1990 c-57 -29 -85 -58 -112 -115 -42 -88 -25 -205 39 -273 40
-44 111 -72 177 -72 73 0 114 16 168 65 127 114 86 334 -74 401 -49 21 -151
17 -198 -6z" />
        <path d="M2192 1903 c-52 -25 -77 -69 -77 -133 0 -65 26 -109 79 -134 32 -15
105 -16 765 -14 719 3 730 3 757 24 50 37 69 72 69 124 0 52 -19 87 -69 124
-27 21 -38 21 -759 23 -659 3 -735 1 -765 -14z" />
        <path d="M1526 1230 c-57 -29 -85 -58 -112 -115 -42 -88 -25 -205 39 -273 40
-44 111 -72 177 -72 73 0 114 16 168 65 127 114 86 334 -74 401 -49 21 -151
17 -198 -6z" />
        <path d="M2192 1143 c-52 -25 -77 -69 -77 -133 0 -65 26 -109 79 -134 32 -15
105 -16 765 -14 719 3 730 3 757 24 50 37 69 72 69 124 0 52 -19 87 -69 124
-27 21 -38 21 -759 23 -659 3 -735 1 -765 -14z" />
    </g>
</svg>
